<?xml version="1.0" encoding="utf-8"?>
<!-- Generator: Adobe Illustrator 18.1.1, SVG Export Plug-In . SVG Version: 6.00 Build 0)  -->
<svg version="1.1" id="Layer_1" xmlns="http://www.w3.org/2000/svg" xmlns:xlink="http://www.w3.org/1999/xlink" x="0px" y="0px"
	 viewBox="0 0 3000 3000" enable-background="new 0 0 3000 3000" xml:space="preserve">
<g>
	<rect fill="#FECB88" width="3000" height="3000"/>
	<rect x="571.8" y="392.1" opacity="0.15" width="2041.2" height="2400.6"/>
	<rect x="479.4" y="299.7" fill="#F1F2F2" width="2041.2" height="2400.6"/>
	<rect x="479.4" y="299.7" fill="#13122C" width="504.3" height="2400.6"/>
	<rect x="983.7" y="299.7" fill="#A39FCE" width="1536.8" height="379.6"/>
	<g>
		<rect x="570.5" y="369" fill="#FFFFFF" width="322.2" height="337.1"/>
		<g>
			<circle fill="#262262" cx="731.6" cy="484.2" r="89.7"/>
			<path fill="#262262" d="M662.2,562.6c18.5,16.3,42.7,26.2,69.3,26.2c26.6,0,50.9-9.9,69.3-26.2c40.4,23.8,67.5,67.7,67.5,118
				H594.8C594.8,630.4,621.8,586.4,662.2,562.6z"/>
		</g>
	</g>
	<g opacity="0.45">
		<path fill="#EC1D24" d="M1250.2,1945.1c0-143.7,90.1-267.3,261.4-267.3c64.8,0,116.2,19.4,170.5,66.3
			c20.1,18.6,22.3,51.4,2.2,72.2c-20.1,17.9-50.6,15.6-68.5-2.2c-30.5-32-61.8-41-104.3-41c-114.7,0-169.8,81.2-169.8,172
			c0,92.3,54.4,177.2,169.8,177.2c42.4,0,81.9-17.1,116.2-47.7c23.1-17.9,55.1-8.9,68.5,8.9c11.9,16.4,17.9,43.9-8.2,70
			c-52.1,48.4-114.7,58.1-176.5,58.1C1331.4,2211.7,1250.2,2088.8,1250.2,1945.1z"/>
		<path fill="#EC1D24" d="M1961.3,2173l-196.6-411.8c-29-58.8,58.8-107.2,91.6-45.4l66.3,149.7l85.6,196.6l84.1-196.6l66.3-149.7
			c29.8-56.6,116.2-20.9,90.8,41L2059.6,2173C2042.5,2219.9,1989.6,2231.1,1961.3,2173z"/>
	</g>
	<g>
		<path fill="#B5CDE7" d="M857.1,763h-251c-4.4,0-8-3.6-8-8l0,0c0-4.4,3.6-8,8-8h251c4.4,0,8,3.6,8,8l0,0
			C865.1,759.4,861.5,763,857.1,763z"/>
		<path fill="#B5CDE7" d="M909.8,811H553.4c-4.4,0-8-3.6-8-8l0,0c0-4.4,3.6-8,8-8h356.4c4.4,0,8,3.6,8,8l0,0
			C917.8,807.4,914.2,811,909.8,811z"/>
		<path fill="#B5CDE7" d="M857.1,859h-251c-4.4,0-8-3.6-8-8l0,0c0-4.4,3.6-8,8-8h251c4.4,0,8,3.6,8,8l0,0
			C865.1,855.4,861.5,859,857.1,859z"/>
	</g>
	<rect x="479.4" y="962.8" fill="#2A2863" width="504.3" height="318"/>
	<g>
		<circle fill="#FFDE17" cx="557.4" cy="1944.9" r="16.8"/>
		<path fill="#B4E3F6" d="M904.3,1955.6H618.8c-5.9,0-10.7-4.8-10.7-10.7l0,0c0-5.9,4.8-10.7,10.7-10.7h285.5
			c5.9,0,10.7,4.8,10.7,10.7l0,0C915,1950.8,910.2,1955.6,904.3,1955.6z"/>
		<circle fill="#FFDE17" cx="557.4" cy="2008.9" r="16.8"/>
		<path fill="#B4E3F6" d="M904.3,2019.6H618.8c-5.9,0-10.7-4.8-10.7-10.7l0,0c0-5.9,4.8-10.7,10.7-10.7h285.5
			c5.9,0,10.7,4.8,10.7,10.7l0,0C915,2014.8,910.2,2019.6,904.3,2019.6z"/>
		<circle fill="#FFDE17" cx="557.4" cy="2072.9" r="16.8"/>
		<path fill="#B4E3F6" d="M904.3,2083.6H618.8c-5.9,0-10.7-4.8-10.7-10.7l0,0c0-5.9,4.8-10.7,10.7-10.7h285.5
			c5.9,0,10.7,4.8,10.7,10.7l0,0C915,2078.8,910.2,2083.6,904.3,2083.6z"/>
		<circle fill="#FFDE17" cx="557.4" cy="2136.9" r="16.8"/>
		<path fill="#B4E3F6" d="M904.3,2147.6H618.8c-5.9,0-10.7-4.8-10.7-10.7l0,0c0-5.9,4.8-10.7,10.7-10.7h285.5
			c5.9,0,10.7,4.8,10.7,10.7l0,0C915,2142.8,910.2,2147.6,904.3,2147.6z"/>
	</g>
	<g>
		<path fill="#B4E3F6" d="M911.2,1044.8H551.9c-4.8,0-8.8-3.9-8.8-8.8l0,0c0-4.8,3.9-8.8,8.8-8.8h359.3c4.8,0,8.8,3.9,8.8,8.8l0,0
			C920,1040.9,916.1,1044.8,911.2,1044.8z"/>
		<path fill="#B4E3F6" d="M859.2,1087.8H551.9c-4.8,0-8.8-3.9-8.8-8.8l0,0c0-4.8,3.9-8.8,8.8-8.8h307.3c4.8,0,8.8,3.9,8.8,8.8l0,0
			C868,1083.9,864.1,1087.8,859.2,1087.8z"/>
		<path fill="#B4E3F6" d="M911.2,1130.8H551.9c-4.8,0-8.8-3.9-8.8-8.8l0,0c0-4.8,3.9-8.8,8.8-8.8h359.3c4.8,0,8.8,3.9,8.8,8.8l0,0
			C920,1126.9,916.1,1130.8,911.2,1130.8z"/>
		<path fill="#B4E3F6" d="M859.2,1173.8H551.9c-4.8,0-8.8-3.9-8.8-8.8l0,0c0-4.8,3.9-8.8,8.8-8.8h307.3c4.8,0,8.8,3.9,8.8,8.8l0,0
			C868,1169.9,864.1,1173.8,859.2,1173.8z"/>
		<path fill="#B4E3F6" d="M911.2,1216.8H551.9c-4.8,0-8.8-3.9-8.8-8.8l0,0c0-4.8,3.9-8.8,8.8-8.8h359.3c4.8,0,8.8,3.9,8.8,8.8l0,0
			C920,1212.9,916.1,1216.8,911.2,1216.8z"/>
	</g>
	<g>
		<path fill="#B4E3F6" d="M911.2,1398H551.9c-4.8,0-8.8-3.9-8.8-8.8l0,0c0-4.8,3.9-8.8,8.8-8.8h359.3c4.8,0,8.8,3.9,8.8,8.8l0,0
			C920,1394.1,916.1,1398,911.2,1398z"/>
		<path fill="#B4E3F6" d="M859.2,1441H551.9c-4.8,0-8.8-3.9-8.8-8.8l0,0c0-4.8,3.9-8.8,8.8-8.8h307.3c4.8,0,8.8,3.9,8.8,8.8l0,0
			C868,1437.1,864.1,1441,859.2,1441z"/>
		<path fill="#B4E3F6" d="M911.2,1484H551.9c-4.8,0-8.8-3.9-8.8-8.8l0,0c0-4.8,3.9-8.8,8.8-8.8h359.3c4.8,0,8.8,3.9,8.8,8.8l0,0
			C920,1480.1,916.1,1484,911.2,1484z"/>
		<path fill="#B4E3F6" d="M859.2,1527H551.9c-4.8,0-8.8-3.9-8.8-8.8l0,0c0-4.8,3.9-8.8,8.8-8.8h307.3c4.8,0,8.8,3.9,8.8,8.8l0,0
			C868,1523.1,864.1,1527,859.2,1527z"/>
		<path fill="#B4E3F6" d="M911.2,1570H551.9c-4.8,0-8.8-3.9-8.8-8.8l0,0c0-4.8,3.9-8.8,8.8-8.8h359.3c4.8,0,8.8,3.9,8.8,8.8l0,0
			C920,1566.1,916.1,1570,911.2,1570z"/>
	</g>
	<g>
		<circle fill="#ED1C24" cx="557.4" cy="2343.7" r="16.8"/>
		<path fill="#B4E3F6" d="M904.3,2354.4H618.8c-5.9,0-10.7-4.8-10.7-10.7l0,0c0-5.9,4.8-10.7,10.7-10.7h285.5
			c5.9,0,10.7,4.8,10.7,10.7l0,0C915,2349.6,910.2,2354.4,904.3,2354.4z"/>
		<circle fill="#ED1C24" cx="557.4" cy="2407.7" r="16.8"/>
		<path fill="#B4E3F6" d="M904.3,2418.4H618.8c-5.9,0-10.7-4.8-10.7-10.7l0,0c0-5.9,4.8-10.7,10.7-10.7h285.5
			c5.9,0,10.7,4.8,10.7,10.7l0,0C915,2413.6,910.2,2418.4,904.3,2418.4z"/>
		<circle fill="#ED1C24" cx="557.4" cy="2471.7" r="16.8"/>
		<path fill="#B4E3F6" d="M904.3,2482.4H618.8c-5.9,0-10.7-4.8-10.7-10.7l0,0c0-5.9,4.8-10.7,10.7-10.7h285.5
			c5.9,0,10.7,4.8,10.7,10.7l0,0C915,2477.6,910.2,2482.4,904.3,2482.4z"/>
		<circle fill="#ED1C24" cx="557.4" cy="2535.7" r="16.8"/>
		<path fill="#B4E3F6" d="M904.3,2546.4H618.8c-5.9,0-10.7-4.8-10.7-10.7l0,0c0-5.9,4.8-10.7,10.7-10.7h285.5
			c5.9,0,10.7,4.8,10.7,10.7l0,0C915,2541.6,910.2,2546.4,904.3,2546.4z"/>
	</g>
	<g>
		<path fill="#F1F2F2" d="M1356.3,425h-257.9c-3,0-5.5,2.4-5.5,5.5v0c0,3,2.4,5.5,5.5,5.5h257.9c3,0,5.5-2.4,5.5-5.5v0
			C1361.8,427.4,1359.4,425,1356.3,425z"/>
		<path fill="#F1F2F2" d="M1356.3,471h-257.9c-3,0-5.5,2.4-5.5,5.5v0c0,3,2.4,5.5,5.5,5.5h257.9c3,0,5.5-2.4,5.5-5.5v0
			C1361.8,473.4,1359.4,471,1356.3,471z"/>
		<path fill="#F1F2F2" d="M1483.3,517h-384.9c-3,0-5.5,2.4-5.5,5.5v0c0,3,2.4,5.5,5.5,5.5h384.9c3,0,5.5-2.4,5.5-5.5v0
			C1488.8,519.4,1486.4,517,1483.3,517z"/>
		<path fill="#F1F2F2" d="M1483.3,563h-384.9c-3,0-5.5,2.4-5.5,5.5v0c0,3,2.4,5.5,5.5,5.5h384.9c3,0,5.5-2.4,5.5-5.5v0
			C1488.8,565.4,1486.4,563,1483.3,563z"/>
	</g>
	<g>
		<path fill="#94BAC9" d="M2312.3,859H1157.5c-3,0-5.5,2.4-5.5,5.5l0,0c0,3,2.4,5.5,5.5,5.5h1154.8c3,0,5.5-2.4,5.5-5.5l0,0
			C2317.8,861.4,2315.3,859,2312.3,859z"/>
		<path fill="#94BAC9" d="M2312.3,914.8H1157.5c-3,0-5.5,2.4-5.5,5.5l0,0c0,3,2.4,5.5,5.5,5.5h1154.8c3,0,5.5-2.4,5.5-5.5l0,0
			C2317.8,917.2,2315.3,914.8,2312.3,914.8z"/>
		<path fill="#94BAC9" d="M2312.3,970.5H1157.5c-3,0-5.5,2.4-5.5,5.5l0,0c0,3,2.4,5.5,5.5,5.5h1154.8c3,0,5.5-2.4,5.5-5.5l0,0
			C2317.8,973,2315.3,970.5,2312.3,970.5z"/>
		<path fill="#94BAC9" d="M2312.3,1026.3H1157.5c-3,0-5.5,2.4-5.5,5.5l0,0c0,3,2.4,5.5,5.5,5.5h1154.8c3,0,5.5-2.4,5.5-5.5l0,0
			C2317.8,1028.7,2315.3,1026.3,2312.3,1026.3z"/>
		<path fill="#94BAC9" d="M1707.6,1082h-550.1c-3,0-5.5,2.4-5.5,5.5l0,0c0,3,2.4,5.5,5.5,5.5h550.1c3,0,5.5-2.4,5.5-5.5l0,0
			C1713.1,1084.5,1710.6,1082,1707.6,1082z"/>
		<path fill="#94BAC9" d="M2312.3,1233H1157.5c-3,0-5.5,2.4-5.5,5.5l0,0c0,3,2.4,5.5,5.5,5.5h1154.8c3,0,5.5-2.4,5.5-5.5l0,0
			C2317.8,1235.5,2315.3,1233,2312.3,1233z"/>
		<path fill="#94BAC9" d="M2312.3,1288.8H1157.5c-3,0-5.5,2.4-5.5,5.5l0,0c0,3,2.4,5.5,5.5,5.5h1154.8c3,0,5.5-2.4,5.5-5.5l0,0
			C2317.8,1291.2,2315.3,1288.8,2312.3,1288.8z"/>
		<path fill="#94BAC9" d="M2312.3,1344.5H1157.5c-3,0-5.5,2.4-5.5,5.5l0,0c0,3,2.4,5.5,5.5,5.5h1154.8c3,0,5.5-2.4,5.5-5.5l0,0
			C2317.8,1347,2315.3,1344.5,2312.3,1344.5z"/>
		<path fill="#94BAC9" d="M2312.3,1400.3H1157.5c-3,0-5.5,2.4-5.5,5.5v0c0,3,2.4,5.5,5.5,5.5h1154.8c3,0,5.5-2.4,5.5-5.5v0
			C2317.8,1402.7,2315.3,1400.3,2312.3,1400.3z"/>
		<path fill="#94BAC9" d="M1707.6,1456.1h-550.1c-3,0-5.5,2.4-5.5,5.5l0,0c0,3,2.4,5.5,5.5,5.5h550.1c3,0,5.5-2.4,5.5-5.5l0,0
			C1713.1,1458.5,1710.6,1456.1,1707.6,1456.1z"/>
	</g>
	<g>
		<path fill="#F1F2F2" d="M2139,573.9h257.9c3,0,5.5-2.4,5.5-5.5l0,0c0-3-2.4-5.5-5.5-5.5H2139c-3,0-5.5,2.4-5.5,5.5l0,0
			C2133.5,571.5,2136,573.9,2139,573.9z"/>
		<path fill="#F1F2F2" d="M2139,527.9h257.9c3,0,5.5-2.4,5.5-5.5v0c0-3-2.4-5.5-5.5-5.5H2139c-3,0-5.5,2.4-5.5,5.5v0
			C2133.5,525.5,2136,527.9,2139,527.9z"/>
		<path fill="#F1F2F2" d="M2012,481.9h384.9c3,0,5.5-2.4,5.5-5.5l0,0c0-3-2.4-5.5-5.5-5.5H2012c-3,0-5.5,2.4-5.5,5.5l0,0
			C2006.5,479.5,2009,481.9,2012,481.9z"/>
		<path fill="#F1F2F2" d="M2012,435.9h384.9c3,0,5.5-2.4,5.5-5.5v0c0-3-2.4-5.5-5.5-5.5H2012c-3,0-5.5,2.4-5.5,5.5v0
			C2006.5,433.5,2009,435.9,2012,435.9z"/>
	</g>
	<g>
		<path fill="#94BAC9" d="M2054.4,2610.2h257.9c3,0,5.5-2.4,5.5-5.5l0,0c0-3-2.4-5.5-5.5-5.5h-257.9c-3,0-5.5,2.4-5.5,5.5l0,0
			C2049,2607.7,2051.4,2610.2,2054.4,2610.2z"/>
		<path fill="#94BAC9" d="M2054.4,2564.2h257.9c3,0,5.5-2.4,5.5-5.5l0,0c0-3-2.4-5.5-5.5-5.5h-257.9c-3,0-5.5,2.4-5.5,5.5l0,0
			C2049,2561.7,2051.4,2564.2,2054.4,2564.2z"/>
		<path fill="#94BAC9" d="M1927.4,2518.2h384.9c3,0,5.5-2.4,5.5-5.5l0,0c0-3-2.4-5.5-5.5-5.5h-384.9c-3,0-5.5,2.4-5.5,5.5l0,0
			C1922,2515.7,1924.4,2518.2,1927.4,2518.2z"/>
		<path fill="#94BAC9" d="M1927.4,2472.2h384.9c3,0,5.5-2.4,5.5-5.5l0,0c0-3-2.4-5.5-5.5-5.5h-384.9c-3,0-5.5,2.4-5.5,5.5l0,0
			C1922,2469.7,1924.4,2472.2,1927.4,2472.2z"/>
	</g>
</g>
</svg>
